HIERARCHY
ROOT Haolin_28_06:Solving:Hips
{
	OFFSET 0.000000 0.000000 0.000000
	CHANNELS 6 Xposition Yposition Zposition Xrotation Yrotation Zrotation
	JOINT Haolin_28_06:Solving:Spine
	{
		OFFSET 0.000000 -12.181966 2.015561
		CHANNELS 6 Xposition Yposition Zposition Xrotation Yrotation Zrotation
		JOINT Haolin_28_06:Solving:Spine1
		{
			OFFSET 0.000000 -8.890296 1.567602
			CHANNELS 6 Xposition Yposition Zposition Xrotation Yrotation Zrotation
			JOINT Haolin_28_06:Solving:Spine2
			{
				OFFSET 0.000000 -8.993092 0.786796
				CHANNELS 6 Xposition Yposition Zposition Xrotation Yrotation Zrotation
				JOINT Haolin_28_06:Solving:Spine3
				{
					OFFSET 0.000000 -9.027443 0.000000
					CHANNELS 6 Xposition Yposition Zposition Xrotation Yrotation Zrotation
					JOINT Haolin_28_06:Solving:Neck
					{
						OFFSET 0.000000 -11.606712 -1.160669
						CHANNELS 6 Xposition Yposition Zposition Xrotation Yrotation Zrotation
						JOINT Haolin_28_06:Solving:Neck1
						{
							OFFSET 0.000000 -7.471592 -0.653680
							CHANNELS 6 Xposition Yposition Zposition Xrotation Yrotation Zrotation
							JOINT Haolin_28_06:Solving:Head
							{
								OFFSET 0.000000 -7.386181 -1.302382
								CHANNELS 6 Xposition Yposition Zposition Xrotation Yrotation Zrotation
								JOINT Haolin_28_06:Solving:HeadEnd
								{
									OFFSET 0.000000 -9.728081 0.000002
									CHANNELS 6 Xposition Yposition Zposition Xrotation Yrotation Zrotation
									End Site
									{
										OFFSET 0.000000 -9.728081 0.000002
									}
								}
							}
						}
					}
					JOINT Haolin_28_06:Solving:RightShoulder
					{
						OFFSET 0.000000 -8.290508 -5.270916
						CHANNELS 6 Xposition Yposition Zposition Xrotation Yrotation Zrotation
						JOINT Haolin_28_06:Solving:RightArm
						{
							OFFSET -19.261074 -0.000008 0.000000
							CHANNELS 6 Xposition Yposition Zposition Xrotation Yrotation Zrotation
							JOINT Haolin_28_06:Solving:RightForeArm
							{
								OFFSET -30.691700 -0.000011 0.000000
								CHANNELS 6 Xposition Yposition Zposition Xrotation Yrotation Zrotation
								JOINT Haolin_28_06:Solving:RightHand
								{
									OFFSET -20.216934 -0.000008 0.000000
									CHANNELS 6 Xposition Yposition Zposition Xrotation Yrotation Zrotation
									JOINT Haolin_28_06:Solving:RightHandThumb1
									{
										OFFSET -4.948814 2.881329 -3.679893
										CHANNELS 6 Xposition Yposition Zposition Xrotation Yrotation Zrotation
										End Site
										{
											OFFSET -7.039886 -0.000004 -7.104978
										}
									}
									JOINT Haolin_28_06:Solving:RightHandMiddle1
									{
										OFFSET -13.196846 -0.000004 0.084595
										CHANNELS 6 Xposition Yposition Zposition Xrotation Yrotation Zrotation
										End Site
										{
											OFFSET -10.002037 -0.000004 0.000000
										}
									}
								}
							}
						}
					}
					JOINT Haolin_28_06:Solving:LeftShoulder
					{
						OFFSET 0.000000 -8.290508 -5.270916
						CHANNELS 6 Xposition Yposition Zposition Xrotation Yrotation Zrotation
						JOINT Haolin_28_06:Solving:LeftArm
						{
							OFFSET 19.261074 -0.000008 0.000000
							CHANNELS 6 Xposition Yposition Zposition Xrotation Yrotation Zrotation
							JOINT Haolin_28_06:Solving:LeftForeArm
							{
								OFFSET 30.691700 -0.000011 0.000000
								CHANNELS 6 Xposition Yposition Zposition Xrotation Yrotation Zrotation
								JOINT Haolin_28_06:Solving:LeftHand
								{
									OFFSET 20.216934 -0.000008 0.000000
									CHANNELS 6 Xposition Yposition Zposition Xrotation Yrotation Zrotation
									JOINT Haolin_28_06:Solving:LeftHandThumb1
									{
										OFFSET 4.948814 2.881329 -3.679893
										CHANNELS 6 Xposition Yposition Zposition Xrotation Yrotation Zrotation
										End Site
										{
											OFFSET 7.039886 -0.000004 -7.104978
										}
									}
									JOINT Haolin_28_06:Solving:LeftHandMiddle1
									{
										OFFSET 13.196846 -0.000004 0.084595
										CHANNELS 6 Xposition Yposition Zposition Xrotation Yrotation Zrotation
										End Site
										{
											OFFSET 10.002037 -0.000004 0.000000
										}
									}
								}
							}
						}
					}
				}
			}
		}
	}
	JOINT Haolin_28_06:Solving:RightUpLeg
	{
		OFFSET -10.083070 0.000000 0.000000
		CHANNELS 6 Xposition Yposition Zposition Xrotation Yrotation Zrotation
		JOINT Haolin_28_06:Solving:RightLeg
		{
			OFFSET 0.000000 47.042522 -0.000008
			CHANNELS 6 Xposition Yposition Zposition Xrotation Yrotation Zrotation
			JOINT Haolin_28_06:Solving:RightFoot
			{
				OFFSET 0.000000 38.766415 -0.000006
				CHANNELS 6 Xposition Yposition Zposition Xrotation Yrotation Zrotation
				JOINT Haolin_28_06:Solving:RightForeFoot
				{
					OFFSET 0.000000 3.531212 -0.000000
					CHANNELS 6 Xposition Yposition Zposition Xrotation Yrotation Zrotation
					JOINT Haolin_28_06:Solving:RightToeBase
					{
						OFFSET 0.000000 0.000000 -13.829352
						CHANNELS 6 Xposition Yposition Zposition Xrotation Yrotation Zrotation
						JOINT Haolin_28_06:Solving:RightToeBaseEnd
						{
							OFFSET 0.000000 0.000000 -4.034167
							CHANNELS 6 Xposition Yposition Zposition Xrotation Yrotation Zrotation
							End Site
							{
								OFFSET 0.000000 -4.034164 0.000004
							}
						}
					}
				}
			}
		}
	}
	JOINT Haolin_28_06:Solving:LeftUpLeg
	{
		OFFSET 10.083070 0.000000 0.000000
		CHANNELS 6 Xposition Yposition Zposition Xrotation Yrotation Zrotation
		JOINT Haolin_28_06:Solving:LeftLeg
		{
			OFFSET 0.000000 47.042522 -0.000008
			CHANNELS 6 Xposition Yposition Zposition Xrotation Yrotation Zrotation
			JOINT Haolin_28_06:Solving:LeftFoot
			{
				OFFSET 0.000000 38.766415 -0.000006
				CHANNELS 6 Xposition Yposition Zposition Xrotation Yrotation Zrotation
				JOINT Haolin_28_06:Solving:LeftForeFoot
				{
					OFFSET 0.000000 3.531212 -0.000000
					CHANNELS 6 Xposition Yposition Zposition Xrotation Yrotation Zrotation
					JOINT Haolin_28_06:Solving:LeftToeBase
					{
						OFFSET 0.000000 0.000000 -13.829352
						CHANNELS 6 Xposition Yposition Zposition Xrotation Yrotation Zrotation
						JOINT Haolin_28_06:Solving:LeftToeBaseEnd
						{
							OFFSET 0.000000 0.000000 -4.855067
							CHANNELS 6 Xposition Yposition Zposition Xrotation Yrotation Zrotation
							End Site
							{
								OFFSET 0.000000 -4.855064 0.000004
							}
						}
					}
				}
			}
		}
	}
}
MOTION
Frames: 4
Frame Time: 0.041667
-20.625187 37.024178 -93.733093 78.911566 13.825379 3.164570 0.000002 -12.181964 2.015565 15.784787 -0.389576 -6.970323 0.000004 -8.890311 1.567608 0.392952 0.027033 -1.152180 0.000003 -8.993131 0.786794 -0.080945 -4.592831 0.293595 -0.000002 -9.027411 -0.000004 2.613827 -2.204352 4.176879 0.000002 -11.606736 -1.160670 -1.331691 -2.408989 -0.767109 0.000001 -7.471626 -0.653682 2.639688 -7.016813 -2.049912 0.000001 -7.386189 -1.302376 8.842932 -0.347166 -2.057244 -0.000008 -9.728127 -0.000003 0.000003 0.000000 -0.000002 -0.000007 -8.290493 -5.270915 -0.000012 20.205983 7.083625 -19.261074 -0.000008 0.000002 -8.970274 -53.303076 -89.049479 -30.691694 -0.000008 -0.000001 -14.725732 -15.003680 -3.892428 -20.216934 -0.000019 0.000003 1.333031 -13.505591 5.690145 -4.948821 2.881319 -3.679883 -0.000002 0.000005 0.000003 -13.196874 -0.000020 0.084593 0.000003 0.000002 0.000004 -0.000003 -8.290524 -5.270911 -0.000012 -15.302335 -5.091103 19.261086 -0.000002 0.000006 -7.956827 36.885098 89.472575 30.691711 -0.000021 0.000009 11.938009 21.167810 -4.365832 20.216938 -0.000025 0.000010 0.031522 2.840232 -0.636290 4.948831 2.881319 -3.679869 0.000002 -0.000002 0.000001 13.196863 0.000001 0.084607 -0.000000 -0.000005 0.000002 -10.083065 -0.000019 0.000001 16.016718 5.256319 0.786183 0.000003 47.042519 -0.000002 -4.571639 -0.000000 -0.000000 0.000004 38.766418 -0.000003 7.738574 9.211389 -3.967689 0.000003 3.531197 0.000015 0.000001 -0.000005 0.000000 0.000009 0.000011 -13.829341 1.627244 -0.000007 0.000001 0.000001 0.000007 -4.034163 -0.000000 -0.000004 0.000001 10.083074 -0.000007 0.000004 13.869272 -26.584660 -6.771914 -0.000001 47.042511 -0.000002 4.578949 0.000001 0.000001 -0.000004 38.766430 -0.000012 3.707682 -13.069131 12.140675 -0.000002 3.531204 -0.000002 -0.000001 -0.000002 0.000000 -0.000002 0.000005 -13.829353 0.572029 -0.000003 -0.000001 -0.000001 -0.000000 -4.855072 -0.000000 0.000002 -0.000000 
-20.680162 37.016571 -93.722069 78.897598 13.842363 3.253252 -0.000004 -12.181948 2.015553 15.753275 -0.390106 -6.991581 0.000002 -8.890312 1.567601 0.368568 0.031981 -1.140893 0.000002 -8.993091 0.786802 -0.087553 -4.619239 0.275910 0.000000 -9.027442 -0.000003 2.678720 -2.201028 4.166872 0.000002 -11.606732 -1.160673 -1.304636 -2.488858 -0.752886 -0.000001 -7.471583 -0.653674 2.611160 -7.037525 -2.028581 -0.000001 -7.386171 -1.302379 8.814226 -0.350000 -2.030305 -0.000005 -9.728081 0.000001 0.000003 -0.000000 -0.000001 -0.000001 -8.290512 -5.270922 -0.000011 20.098264 7.062337 -19.261066 -0.000028 -0.000005 -8.610658 -53.407855 -88.263031 -30.691679 -0.000009 -0.000005 -14.481925 -15.151931 -3.862136 -20.216906 -0.000023 0.000008 1.011712 -13.381758 4.363385 -4.948796 2.881326 -3.679902 -0.000004 -0.000000 0.000004 -13.196845 -0.000005 0.084587 -0.000001 0.000003 0.000001 -0.000001 -8.290516 -5.270926 -0.000009 -15.331282 -5.086449 19.261080 -0.000022 -0.000004 -7.461165 38.428430 88.347500 30.691704 -0.000006 0.000008 9.860313 22.019662 -3.728528 20.216913 -0.000033 0.000003 0.054128 3.593600 -0.863470 4.948786 2.881328 -3.679880 0.000004 0.000009 -0.000007 13.196840 0.000003 0.084607 -0.000001 -0.000001 0.000002 -10.083072 -0.000003 -0.000012 16.023383 5.172005 0.680763 0.000001 47.042530 0.000003 -4.534989 0.000000 0.000000 -0.000005 38.766415 0.000000 7.712323 9.229022 -3.981158 -0.000001 3.531212 0.000009 0.000000 -0.000001 0.000000 0.000003 0.000017 -13.829355 1.641812 0.000002 -0.000000 0.000002 0.000007 -4.034164 -0.000002 0.000002 0.000000 10.083066 -0.000006 -0.000010 13.839525 -26.514958 -6.887670 0.000002 47.042519 -0.000005 4.599077 0.000001 -0.000001 -0.000001 38.766426 -0.000011 3.636014 -13.201227 12.192478 -0.000002 3.531204 -0.000005 -0.000000 0.000001 -0.000000 -0.000003 -0.000001 -13.829357 0.613096 -0.000002 -0.000000 0.000005 -0.000008 -4.855057 0.000000 0.000002 -0.000000 
-20.725578 37.007294 -93.704788 78.903903 13.793740 3.338334 0.000006 -12.181960 2.015566 15.665449 -0.375106 -7.007436 -0.000001 -8.890291 1.567600 0.364822 0.038312 -1.159471 -0.000002 -8.993095 0.786785 -0.070630 -4.627942 0.246326 0.000001 -9.027428 0.000000 2.744208 -2.194353 4.150428 0.000007 -11.606689 -1.160642 -1.283796 -2.561173 -0.724975 0.000000 -7.471600 -0.653681 2.580092 -7.078114 -2.002661 -0.000001 -7.386164 -1.302377 8.778917 -0.354127 -1.990423 0.000001 -9.728127 0.000009 -0.000001 0.000001 -0.000000 0.000006 -8.290455 -5.270892 -0.000012 19.979027 7.081891 -19.261070 -0.000053 0.000005 -8.226838 -53.605982 -87.424017 -30.691702 -0.000005 0.000004 -14.357877 -15.332897 -3.872218 -20.216909 -0.000017 0.000001 0.691138 -13.163854 3.032085 -4.948787 2.881336 -3.679876 -0.000007 -0.000000 0.000005 -13.196829 0.000004 0.084595 -0.000005 -0.000001 0.000002 0.000005 -8.290474 -5.270890 -0.000011 -15.307847 -5.111511 19.261065 0.000005 -0.000001 -7.067379 39.583258 87.364506 30.691708 -0.000007 -0.000003 8.241975 22.700472 -3.199472 20.216946 -0.000016 0.000005 0.057407 4.156741 -0.791977 4.948832 2.881323 -3.679878 -0.000004 -0.000005 -0.000007 13.196860 -0.000014 0.084592 0.000001 0.000005 -0.000001 -10.083073 0.000006 0.000006 16.030037 5.148112 0.561310 -0.000005 47.042534 -0.000010 -4.519750 0.000005 0.000000 0.000004 38.766418 0.000004 7.693621 9.253667 -4.006201 -0.000002 3.531212 -0.000004 0.000002 0.000000 -0.000000 0.000002 0.000014 -13.829353 1.634113 -0.000002 -0.000002 -0.000004 0.000008 -4.034166 -0.000000 0.000001 -0.000001 10.083074 -0.000001 0.000010 13.743252 -26.556248 -7.040612 0.000003 47.042542 -0.000004 4.646208 0.000002 0.000002 -0.000003 38.766411 -0.000009 3.512865 -13.161695 12.247009 0.000000 3.531204 -0.000001 -0.000001 0.000002 0.000000 0.000002 -0.000003 -13.829360 0.709155 0.000003 -0.000000 -0.000002 -0.000000 -4.855062 -0.000000 0.000003 0.000000 
-20.743752 36.992527 -93.690826 78.924304 13.747622 3.391164 0.000005 -12.181969 2.015567 15.549995 -0.375588 -7.009486 -0.000001 -8.890282 1.567593 0.367994 0.045282 -1.183705 -0.000004 -8.993094 0.786797 -0.028661 -4.618333 0.216922 -0.000000 -9.027421 0.000001 2.809609 -2.185113 4.127963 -0.000004 -11.606712 -1.160661 -1.282767 -2.630255 -0.693155 0.000002 -7.471570 -0.653675 2.556097 -7.133141 -1.968979 0.000001 -7.386204 -1.302382 8.741642 -0.359951 -1.939308 -0.000002 -9.728096 0.000003 0.000004 0.000000 -0.000001 -0.000000 -8.290504 -5.270915 -0.000012 19.831774 7.116581 -19.261065 -0.000004 -0.000005 -7.821257 -53.930371 -86.515390 -30.691692 -0.000016 -0.000002 -14.430680 -15.504591 -3.935035 -20.216925 -0.000014 0.000002 0.393303 -12.862123 1.766249 -4.948814 2.881315 -3.679882 -0.000004 0.000007 0.000001 -13.196861 -0.000017 0.084600 0.000001 0.000000 -0.000000 0.000002 -8.290504 -5.270915 -0.000010 -15.150753 -5.223144 19.261076 -0.000017 0.000008 -7.152098 38.945455 86.958048 30.691715 -0.000010 -0.000001 8.419174 22.649373 -3.262149 20.216911 -0.000021 -0.000005 -0.013134 4.911852 0.153413 4.948813 2.881326 -3.679896 -0.000000 -0.000007 -0.000002 13.196853 -0.000004 0.084586 0.000000 -0.000006 -0.000001 -10.083069 0.000004 0.000012 16.017596 5.155818 0.487378 -0.000003 47.042511 -0.000012 -4.516899 0.000000 -0.000000 0.000005 38.766415 0.000002 7.684408 9.250737 -4.027618 -0.000001 3.531212 -0.000005 0.000000 -0.000005 -0.000000 0.000005 0.000014 -13.829350 1.647523 -0.000000 -0.000000 0.000001 -0.000000 -4.034172 -0.000001 0.000003 -0.000001 10.083073 0.000000 0.000000 13.635254 -26.678120 -7.151673 0.000002 47.042515 -0.000011 4.690429 -0.000000 0.000001 -0.000004 38.766422 -0.000012 3.402659 -13.050682 12.304119 -0.000001 3.531219 0.000002 -0.000001 -0.000003 0.000000 -0.000000 0.000003 -13.829362 0.812677 -0.000001 -0.000001 -0.000001 0.000000 -4.855070 0.000001 0.000003 -0.000000 
